<?xml version="1.0" standalone="no"?>
<!DOCTYPE svg PUBLIC "-//W3C//DTD SVG 20010904//EN"
 "http://www.w3.org/TR/2001/REC-SVG-20010904/DTD/svg10.dtd">
<svg version="1.0" xmlns="http://www.w3.org/2000/svg"
 width="200.000000pt" height="200.000000pt" viewBox="0 0 200.000000 200.000000"
 preserveAspectRatio="xMidYMid meet">
<metadata>
Created by potrace 1.16, written by Peter Selinger 2001-2019
</metadata>
<g transform="translate(0.000000,200.000000) scale(0.100000,-0.100000)"
fill="#000000" stroke="none">
<path d="M878 1791 c-118 -38 -217 -122 -265 -227 -140 -306 98 -640 434 -609
245 22 424 265 374 505 -52 251 -307 406 -543 331z m342 -283 c57 -30 83 -76
77 -141 -8 -87 -96 -150 -179 -127 -20 6 -41 17 -48 25 -20 24 -105 20 -140
-6 -42 -32 -129 -23 -170 16 -61 58 -62 150 -4 209 39 38 71 44 254 45 153 1
169 -1 210 -21z"/>
<path d="M650 680 c0 -123 1 -130 20 -130 19 0 20 7 20 130 0 123 -1 130 -20
130 -19 0 -20 -7 -20 -130z"/>
<path d="M750 680 c0 -123 1 -130 20 -130 19 0 20 7 20 130 0 123 -1 130 -20
130 -19 0 -20 -7 -20 -130z"/>
<path d="M147 743 c-3 -21 -9 -73 -13 -115 -6 -74 -6 -78 13 -78 17 0 21 9 27
61 3 34 6 78 7 98 1 45 8 29 40 -82 22 -77 43 -104 59 -77 4 7 18 52 31 99
l24 86 7 -45 c3 -25 7 -66 7 -92 1 -45 3 -48 27 -48 24 0 25 2 20 38 -3 20 -8
64 -12 97 -9 92 -11 97 -47 93 -30 -3 -32 -5 -52 -88 l-21 -84 -23 87 c-23 87
-23 87 -56 87 -30 0 -33 -3 -38 -37z"/>
<path d="M903 722 c-50 -8 -80 -91 -52 -143 14 -27 54 -41 95 -33 49 9 45 34
-6 34 -29 0 -42 5 -50 20 -10 19 -8 20 45 20 l55 0 0 33 c0 48 -38 77 -87 69z
m41 -45 c14 -22 4 -29 -33 -25 -31 3 -31 4 -15 26 17 25 32 25 48 -1z"/>
<path d="M1115 721 c-11 -5 -35 -6 -52 -3 l-33 5 0 -87 c0 -85 0 -86 25 -86
24 0 25 2 25 65 0 61 1 65 25 71 14 4 29 3 33 0 3 -4 8 -36 10 -71 4 -56 7
-65 23 -65 17 0 19 8 19 64 0 56 3 66 20 71 33 10 40 -3 40 -71 0 -62 1 -64
25 -64 24 0 25 2 25 70 0 84 -21 116 -68 103 -32 -8 -61 -9 -82 0 -8 3 -24 2
-35 -2z"/>
<path d="M1380 721 c-14 -4 -26 -13 -28 -22 -2 -11 7 -13 43 -11 40 4 45 2 45
-17 0 -16 -6 -21 -28 -21 -38 0 -72 -26 -72 -55 0 -32 41 -59 72 -49 13 4 36
6 52 5 l28 -3 -4 76 c-2 41 -8 80 -13 85 -15 15 -65 21 -95 12z m60 -116 c0
-31 -26 -43 -47 -22 -13 13 -14 19 -3 31 21 26 50 20 50 -9z"/>
<path d="M1774 719 c-58 -16 -53 -69 7 -100 41 -21 51 -38 22 -40 -49 -3 -58
-5 -61 -14 -6 -19 54 -28 84 -13 22 10 29 20 29 43 0 24 -7 34 -37 50 -48 25
-49 45 -3 45 24 0 35 5 35 15 0 8 -4 15 -9 15 -5 0 -15 2 -23 4 -7 2 -27 0
-44 -5z"/>
<path d="M440 650 c0 -57 4 -74 20 -90 23 -23 29 -24 64 -10 16 6 27 6 31 0 4
-6 13 -10 21 -10 11 0 14 18 14 90 0 83 -2 90 -20 90 -17 0 -19 -8 -22 -67 -3
-66 -4 -68 -30 -71 l-28 -3 0 70 c0 69 -1 71 -25 71 -24 0 -25 -2 -25 -70z"/>
<path d="M1533 653 c3 -38 8 -75 12 -85 8 -21 39 -28 75 -18 18 5 30 5 30 -1
0 -5 9 -9 20 -9 19 0 20 7 20 90 0 89 0 90 -25 90 -24 0 -25 -2 -25 -71 l0
-70 -27 3 c-27 3 -28 5 -31 71 -3 65 -4 67 -29 67 -26 0 -26 0 -20 -67z"/>
</g>
</svg>
